# File produced by Open Asset Import Library (http://www.assimp.sf.net)
# (assimp v5.0.0)

mtllib board_18x600x1032.mtl

# 8 vertex positions
v  0.51600003 -0.0089999996 -0.30000001
v  -0.51600003 -0.0089999996 -0.30000001
v  0.51600003 0.0089999996 -0.30000001
v  -0.51600003 0.0089999996 -0.30000001
v  0.51600003 -0.0089999996 0.30000001
v  -0.51600003 -0.0089999996 0.30000001
v  0.51600003 0.0089999996 0.30000001
v  -0.51600003 0.0089999996 0.30000001

# 0 UV coordinates

# 6 vertex normals
vn 0 0 -1
vn 0 -1 0
vn 0 1 0
vn 0 0 1
vn -1 0 0
vn 1 0 0

# Mesh '' with 12 faces
usemtl $Material_0
f  1//1 2//1 3//1
f  3//1 2//1 4//1
f  2//2 1//2 5//2
f  2//2 5//2 6//2
f  3//3 4//3 7//3
f  7//3 4//3 8//3
f  7//4 8//4 5//4
f  5//4 8//4 6//4
f  4//5 2//5 8//5
f  8//5 2//5 6//5
f  1//6 3//6 7//6
f  1//6 7//6 5//6

