# File produced by Open Asset Import Library (http://www.assimp.sf.net)
# (assimp v5.0.0)

mtllib crate_board.mtl

# 32 vertex positions
v  0.49999997 -0.705612 -0.0089999996
v  0.24999999 -0.705612 0.0089999996
v  0.24999999 -0.705612 -0.0089999996
v  0.49999997 -0.705612 0.0089999996
v  0.24999999 -0.955612 -0.0089999996
v  0.24999999 -0.955612 0.0089999996
v  0.49999997 -0.955612 -0.0089999996
v  0.49999997 -0.955612 0.0089999996
v  -0.25 0.955612 -0.0089999996
v  -0.50000006 0.955612 0.0089999996
v  -0.50000006 0.955612 -0.0089999996
v  -0.25 0.955612 0.0089999996
v  -0.50000006 0.705612 -0.0089999996
v  -0.50000006 0.705612 0.0089999996
v  -0.25 0.705612 -0.0089999996
v  -0.25 0.705612 0.0089999996
v  -0.12500001 -0.125 -0.0089999996
v  -0.12500001 0.125 -0.0089999996
v  -0.12500001 -0.125 0.0089999996
v  -0.12500001 0.125 0.0089999996
v  0.12499999 -0.125 0.0089999996
v  0.12499999 -0.125 -0.0089999996
v  0.12499999 0.125 -0.0089999996
v  0.12499999 0.125 0.0089999996
v  0.59999996 -1.2 -0.0089999996
v  -0.59999996 -1.2 0.0089999996
v  -0.59999996 -1.2 -0.0089999996
v  0.59999996 -1.2 0.0089999996
v  -0.59999996 1.2 -0.0089999996
v  -0.59999996 1.2 0.0089999996
v  0.59999996 1.2 -0.0089999996
v  0.59999996 1.2 0.0089999996

# 0 UV coordinates

# 6 vertex normals
vn 0 -1 0
vn 1 0 0
vn 0 1 0
vn -1 0 0
vn 0 0 1
vn 0 0 -1

# Mesh '' with 72 faces
usemtl $Material_0
f  1//1 2//1 3//1
f  4//1 2//1 1//1
f  5//2 3//2 6//2
f  6//2 3//2 2//2
f  7//3 5//3 8//3
f  8//3 5//3 6//3
f  7//4 4//4 1//4
f  7//4 8//4 4//4
f  9//1 10//1 11//1
f  12//1 10//1 9//1
f  13//2 11//2 14//2
f  14//2 11//2 10//2
f  15//3 13//3 16//3
f  16//3 13//3 14//3
f  15//4 12//4 9//4
f  15//4 16//4 12//4
f  17//2 18//2 19//2
f  20//2 19//2 18//2
f  21//3 22//3 17//3
f  21//3 17//3 19//3
f  23//4 22//4 24//4
f  24//4 22//4 21//4
f  23//1 20//1 18//1
f  23//1 24//1 20//1
f  25//1 26//1 27//1
f  28//1 26//1 25//1
f  29//4 27//4 30//4
f  30//4 27//4 26//4
f  31//3 29//3 32//3
f  32//3 29//3 30//3
f  31//2 28//2 25//2
f  31//2 32//2 28//2
f  32//5 4//5 28//5
f  28//5 4//5 8//5
f  28//5 8//5 6//5
f  32//5 30//5 12//5
f  32//5 12//5 24//5
f  32//5 24//5 4//5
f  24//5 21//5 4//5
f  21//5 2//5 4//5
f  21//5 19//5 2//5
f  6//5 2//5 19//5
f  26//5 6//5 19//5
f  28//5 6//5 26//5
f  30//5 26//5 14//5
f  30//5 14//5 10//5
f  30//5 10//5 12//5
f  16//5 20//5 24//5
f  16//5 14//5 20//5
f  14//5 19//5 20//5
f  14//5 26//5 19//5
f  16//5 24//5 12//5
f  31//6 25//6 1//6
f  31//6 1//6 23//6
f  31//6 23//6 9//6
f  15//6 9//6 23//6
f  15//6 23//6 18//6
f  15//6 18//6 13//6
f  13//6 18//6 17//6
f  13//6 17//6 27//6
f  27//6 17//6 5//6
f  25//6 27//6 5//6
f  25//6 5//6 7//6
f  25//6 7//6 1//6
f  29//6 13//6 27//6
f  29//6 11//6 13//6
f  29//6 9//6 11//6
f  31//6 9//6 29//6
f  5//6 17//6 3//6
f  22//6 3//6 17//6
f  22//6 1//6 3//6
f  23//6 1//6 22//6

