# File produced by Open Asset Import Library (http://www.assimp.sf.net)
# (assimp v4.1.3154142419)

mtllib k_rail_diagonal.mtl

# 18 vertex positions
v  0.5154047012329102 1.149999976158142 0.05000000074505806
v  0.5154047012329102 1.149999976158142 -0.05000000074505806
v  -0.550000011920929 0.03616784512996674 -0.05000000074505806
v  -0.550000011920929 0.03616784512996674 0.05000000074505806
v  0.550000011920929 1.149999976158142 0.05000000074505806
v  0.550000011920929 1.149999976158142 -0.05000000074505806
v  0.550000011920929 1.113832235336304 0.05000000074505806
v  0.550000011920929 1.113832235336304 -0.05000000074505806
v  -0.5154047012329102 0 -0.05000000074505806
v  -0.5154047012329102 4.440892098500626e-16 0.05000000074505806
v  0.550000011920929 -1.113832235336304 -0.05000000074505806
v  0.550000011920929 -1.113832235336304 0.05000000074505806
v  0.550000011920929 -1.149999976158142 -0.05000000074505806
v  0.550000011920929 -1.149999976158142 0.05000000074505806
v  0.5154047012329102 -1.149999976158142 0.05000000074505806
v  0.5154047012329102 -1.149999976158142 -0.05000000074505806
v  -0.550000011920929 -0.03616784512996674 0.05000000074505806
v  -0.550000011920929 -0.03616784512996674 -0.05000000074505806

# 0 UV coordinates

# 10 vertex normals
vn -0.7226418256759644 0.6912226676940918 0
vn 0 1 0
vn 1 0 0
vn 0.7226418256759644 -0.6912226676940918 0
vn 0.7226418852806091 0.691222608089447 -5.551115123125783e-17
vn 0 -1 0
vn -0.7226418256759644 -0.6912226676940918 5.551115123125783e-17
vn -1 0 0
vn 0 0 1
vn 0 0 -1

# Mesh '' with 32 faces
usemtl $Material_0
f  1//1 2//1 3//1
f  4//1 1//1 3//1
f  5//2 6//2 2//2
f  5//2 2//2 1//2
f  7//3 8//3 6//3
f  7//3 6//3 5//3
f  9//4 8//4 10//4
f  10//4 8//4 7//4
f  11//5 9//5 12//5
f  12//5 9//5 10//5
f  13//3 11//3 14//3
f  11//3 12//3 14//3
f  13//6 15//6 16//6
f  13//6 14//6 15//6
f  17//7 18//7 16//7
f  15//7 17//7 16//7
f  4//8 3//8 18//8
f  17//8 4//8 18//8
f  10//9 1//9 4//9
f  10//9 4//9 17//9
f  10//9 17//9 15//9
f  12//9 15//9 14//9
f  12//9 10//9 15//9
f  10//9 7//9 1//9
f  7//9 5//9 1//9
f  9//10 16//10 18//10
f  9//10 18//10 3//10
f  9//10 3//10 2//10
f  8//10 2//10 6//10
f  9//10 2//10 8//10
f  11//10 16//10 9//10
f  13//10 16//10 11//10

