# File produced by Open Asset Import Library (http://www.assimp.sf.net)
# (assimp v5.0.0)

mtllib lane_floor.mtl

# 28 vertex positions
v  1.2 -0.55000001 0.055500001
v  1.2 -0.55000001 -0.044500001
v  -1.2 -0.55000001 -0.044500001
v  -1.2 -0.55000001 0.055500001
v  1.2 -0.60000002 0.055500001
v  1.2 -0.60000002 -0.044500001
v  -1.2 -0.60000002 0.055500001
v  -1.2 -0.60000002 -0.044500001
v  -1.15 -0.55000001 0.055500001
v  -1.15 -0.55000001 -0.044500001
v  -1.15 0.55000001 -0.044500001
v  -1.15 0.55000001 0.055500001
v  -1.2 0.55000001 -0.044500001
v  -1.2 0.55000001 0.055500001
v  1.15 0.55000001 -0.044500001
v  1.15 -0.55000001 -0.044500001
v  1.15 0.55000001 0.055500001
v  1.15 -0.55000001 0.055500001
v  1.2 0.55000001 -0.044500001
v  1.2 0.55000001 0.055500001
v  -1.2 0.60000002 -0.044500001
v  -1.2 0.60000002 0.055500001
v  1.2 0.60000002 0.055500001
v  1.2 0.60000002 -0.044500001
v  1.2 0.60000002 -0.055500001
v  1.2 -0.60000002 -0.055500001
v  -1.2 -0.60000002 -0.055500001
v  -1.2 0.60000002 -0.055500001

# 0 UV coordinates

# 6 vertex normals
vn -1.0346909e-13 1 0
vn 1 1.0352645e-13 -5.5511151e-17
vn 1.0346909e-13 -1 0
vn -1 -1.0352645e-13 -1.110223e-16
vn -5.4587935e-17 0 1
vn 9.232169e-19 0 -1

# Mesh '' with 60 faces
usemtl $Material_0
f  1//1 2//1 3//1
f  4//1 1//1 3//1
f  5//2 6//2 2//2
f  5//2 2//2 1//2
f  7//3 8//3 6//3
f  7//3 6//3 5//3
f  8//4 4//4 3//4
f  7//4 4//4 8//4
f  7//5 1//5 4//5
f  7//5 5//5 1//5
f  8//6 3//6 6//6
f  6//6 3//6 2//6
f  9//2 10//2 11//2
f  12//2 9//2 11//2
f  10//3 4//3 3//3
f  9//3 4//3 10//3
f  13//4 3//4 14//4
f  14//4 3//4 4//4
f  12//1 11//1 13//1
f  12//1 13//1 14//1
f  12//5 14//5 4//5
f  12//5 4//5 9//5
f  11//6 10//6 13//6
f  10//6 3//6 13//6
f  15//4 16//4 17//4
f  16//4 18//4 17//4
f  19//1 15//1 20//1
f  15//1 17//1 20//1
f  19//2 1//2 2//2
f  19//2 20//2 1//2
f  16//3 2//3 18//3
f  1//3 18//3 2//3
f  20//5 18//5 1//5
f  17//5 18//5 20//5
f  15//6 2//6 16//6
f  19//6 2//6 15//6
f  21//1 22//1 23//1
f  24//1 21//1 23//1
f  13//4 14//4 22//4
f  13//4 22//4 21//4
f  14//3 19//3 20//3
f  13//3 19//3 14//3
f  24//2 23//2 20//2
f  24//2 20//2 19//2
f  24//6 19//6 21//6
f  13//6 21//6 19//6
f  14//5 20//5 23//5
f  14//5 23//5 22//5
f  25//2 6//2 26//2
f  25//2 24//2 6//2
f  27//3 26//3 8//3
f  26//3 6//3 8//3
f  28//4 27//4 21//4
f  27//4 8//4 21//4
f  28//1 24//1 25//1
f  28//1 21//1 24//1
f  24//5 21//5 6//5
f  21//5 8//5 6//5
f  28//6 25//6 27//6
f  27//6 25//6 26//6

