# File produced by Open Asset Import Library (http://www.assimp.sf.net)
# (assimp v5.0.0)

mtllib pallet_step.mtl

# 48 vertex positions
v  -0.5 0.60000002 0.041000005
v  -0.5 0.60000002 0.090999998
v  -0.5 -0.60000002 0.090999998
v  -0.5 -0.60000002 0.041000005
v  -0.60000002 0.60000002 0.090999998
v  -0.60000002 0.60000002 0.041000005
v  -0.60000002 -0.60000002 0.041000005
v  -0.60000002 -0.60000002 0.090999998
v  0.5 -0.60000002 0.041000005
v  0.5 -0.60000002 -0.109
v  0.60000002 -0.60000002 -0.109
v  0.60000002 -0.60000002 0.041000005
v  0.5 -0.5 0.041000005
v  0.5 -0.5 -0.109
v  0.60000002 -0.5 -0.109
v  0.60000002 -0.5 0.041000005
v  -0.5 -0.60000002 -0.109
v  -0.60000002 -0.60000002 -0.109
v  -0.60000002 -0.5 -0.109
v  -0.60000002 -0.5 0.041000005
v  -0.5 -0.5 0.041000005
v  -0.5 -0.5 -0.109
v  0.5 0.5 0.041000005
v  0.5 0.5 -0.109
v  0.60000002 0.5 -0.109
v  0.60000002 0.5 0.041000005
v  0.5 0.60000002 -0.109
v  0.5 0.60000002 0.041000005
v  0.60000002 0.60000002 -0.109
v  0.60000002 0.60000002 0.041000005
v  -0.5 0.60000002 -0.109
v  -0.5 0.5 0.041000005
v  -0.5 0.5 -0.109
v  -0.60000002 0.60000002 -0.109
v  -0.60000002 0.5 -0.109
v  -0.60000002 0.5 0.041000005
v  -0.60000002 -0.5 0.090999998
v  0.60000002 -0.5 0.090999998
v  0.60000002 -0.60000002 0.090999998
v  0.5 0.60000002 0.090999998
v  0.5 -0.60000002 0.090999998
v  0.60000002 0.60000002 0.090999998
v  -0.60000002 0.5 0.090999998
v  0.60000002 0.5 0.090999998
v  0.60000002 0.60000002 0.109
v  -0.60000002 0.60000002 0.109
v  -0.60000002 -0.60000002 0.109
v  0.60000002 -0.60000002 0.109

# 0 UV coordinates

# 6 vertex normals
vn 1 0 -3.0245074e-16
vn -1.7043227e-29 1 -2.0682311e-13
vn -1 0 4.1919422e-16
vn 3.7865323e-29 -1 2.0682311e-13
vn -3.3306691e-16 -2.0689006e-13 -1
vn 3.3306691e-16 2.0683455e-13 1

# Mesh '' with 108 faces
usemtl $Material_0
f  1//1 2//1 3//1
f  4//1 1//1 3//1
f  5//2 2//2 6//2
f  1//2 6//2 2//2
f  7//3 8//3 5//3
f  7//3 5//3 6//3
f  8//4 4//4 3//4
f  7//4 4//4 8//4
f  7//5 1//5 4//5
f  7//5 6//5 1//5
f  8//6 3//6 5//6
f  5//6 3//6 2//6
f  9//4 10//4 11//4
f  9//4 11//4 12//4
f  13//3 14//3 10//3
f  13//3 10//3 9//3
f  15//2 14//2 16//2
f  13//2 16//2 14//2
f  15//1 12//1 11//1
f  15//1 16//1 12//1
f  13//6 12//6 16//6
f  13//6 9//6 12//6
f  15//5 11//5 10//5
f  15//5 10//5 14//5
f  17//4 7//4 18//4
f  17//4 4//4 7//4
f  19//3 18//3 20//3
f  18//3 7//3 20//3
f  21//2 22//2 19//2
f  21//2 19//2 20//2
f  22//1 4//1 17//1
f  21//1 4//1 22//1
f  21//6 20//6 4//6
f  20//6 7//6 4//6
f  22//5 17//5 18//5
f  22//5 18//5 19//5
f  23//4 24//4 25//4
f  23//4 25//4 26//4
f  27//3 24//3 28//3
f  23//3 28//3 24//3
f  29//2 27//2 30//2
f  27//2 28//2 30//2
f  29//1 26//1 25//1
f  29//1 30//1 26//1
f  26//6 30//6 28//6
f  23//6 26//6 28//6
f  29//5 25//5 24//5
f  29//5 24//5 27//5
f  31//1 1//1 32//1
f  31//1 32//1 33//1
f  34//2 6//2 1//2
f  31//2 34//2 1//2
f  35//3 36//3 6//3
f  34//3 35//3 6//3
f  33//4 32//4 36//4
f  33//4 36//4 35//4
f  33//5 35//5 34//5
f  31//5 33//5 34//5
f  32//6 1//6 36//6
f  1//6 6//6 36//6
f  20//2 37//2 38//2
f  16//2 20//2 38//2
f  37//3 7//3 8//3
f  20//3 7//3 37//3
f  12//4 39//4 8//4
f  12//4 8//4 7//4
f  39//1 16//1 38//1
f  12//1 16//1 39//1
f  12//5 20//5 16//5
f  12//5 7//5 20//5
f  39//6 38//6 8//6
f  38//6 37//6 8//6
f  40//3 28//3 9//3
f  41//3 40//3 9//3
f  42//2 30//2 28//2
f  42//2 28//2 40//2
f  30//1 39//1 12//1
f  42//1 39//1 30//1
f  41//4 9//4 12//4
f  41//4 12//4 39//4
f  41//6 39//6 40//6
f  42//6 40//6 39//6
f  30//5 12//5 9//5
f  30//5 9//5 28//5
f  43//4 36//4 26//4
f  44//4 43//4 26//4
f  5//3 6//3 36//3
f  43//3 5//3 36//3
f  42//2 30//2 6//2
f  42//2 6//2 5//2
f  44//1 26//1 30//1
f  44//1 30//1 42//1
f  44//6 42//6 43//6
f  43//6 42//6 5//6
f  26//5 6//5 30//5
f  26//5 36//5 6//5
f  45//2 5//2 46//2
f  45//2 42//2 5//2
f  47//3 46//3 8//3
f  46//3 5//3 8//3
f  48//4 47//4 39//4
f  47//4 8//4 39//4
f  48//1 42//1 45//1
f  48//1 39//1 42//1
f  42//5 39//5 5//5
f  39//5 8//5 5//5
f  48//6 45//6 47//6
f  47//6 45//6 46//6

