# File produced by Open Asset Import Library (http://www.assimp.sf.net)
# (assimp v5.0.0)

mtllib pallet_step_with_pipe.mtl

# 80 vertex positions
v  -0.49999997 0.60000002 -0.14999999
v  -0.49999997 0.60000002 -0.1
v  -0.49999997 -0.60000002 -0.1
v  -0.49999997 -0.60000002 -0.14999999
v  -0.60000002 0.60000002 -0.14999999
v  -0.60000002 0.60000002 -0.1
v  -0.60000002 -0.60000002 -0.1
v  -0.60000002 -0.60000002 -0.14999999
v  -0.60000002 -0.60000002 0.30000001
v  -0.60000002 -0.611 0.30000001
v  0.60000002 -0.611 0.30000001
v  0.60000002 -0.60000002 0.30000001
v  -0.60000002 -0.611 -0.30000001
v  -0.60000002 -0.60000002 -0.30000001
v  0.60000002 -0.611 -0.30000001
v  0.60000002 -0.60000002 -0.30000001
v  0.60000002 0.611 -0.30000001
v  0.60000002 0.60000002 -0.30000001
v  -0.60000002 0.60000002 -0.30000001
v  -0.60000002 0.611 -0.30000001
v  0.60000002 0.611 0.30000001
v  0.60000002 0.60000002 0.30000001
v  -0.60000002 0.611 0.30000001
v  -0.60000002 0.60000002 0.30000001
v  -0.39999998 0.55000001 -0.082000002
v  -0.39999998 0.55000001 0.21799999
v  -0.49999997 0.55000001 0.21799999
v  -0.49999997 0.55000001 -0.082000002
v  -0.39999998 0.60000002 -0.082000002
v  -0.39999998 0.60000002 0.21799999
v  -0.49999997 0.60000002 -0.082000002
v  -0.49999997 0.60000002 0.21799999
v  -0.39999998 -0.55000001 0.21799999
v  -0.39999998 -0.55000001 -0.082000002
v  -0.49999997 -0.55000001 -0.082000002
v  -0.49999997 -0.55000001 0.21799999
v  -0.39999998 -0.60000002 0.21799999
v  -0.39999998 -0.60000002 -0.082000002
v  -0.49999997 -0.60000002 0.21799999
v  -0.49999997 -0.60000002 -0.082000002
v  -0.49999997 -0.60000002 -0.032000002
v  -0.49999997 0.60000002 -0.032000002
v  -0.60000002 0.60000002 -0.082000002
v  -0.60000002 0.60000002 -0.032000002
v  -0.60000002 -0.60000002 -0.082000002
v  -0.60000002 -0.60000002 -0.032000002
v  0.50000006 -0.60000002 -0.14999999
v  0.50000006 -0.60000002 -0.30000001
v  0.60000002 -0.60000002 -0.14999999
v  0.50000006 -0.5 -0.14999999
v  0.50000006 -0.5 -0.30000001
v  0.60000002 -0.5 -0.14999999
v  0.60000002 -0.5 -0.30000001
v  -0.49999997 -0.60000002 -0.30000001
v  -0.60000002 -0.5 -0.14999999
v  -0.60000002 -0.5 -0.30000001
v  -0.49999997 -0.5 -0.14999999
v  -0.49999997 -0.5 -0.30000001
v  0.50000006 0.5 -0.14999999
v  0.50000006 0.5 -0.30000001
v  0.60000002 0.5 -0.30000001
v  0.60000002 0.5 -0.14999999
v  0.50000006 0.60000002 -0.14999999
v  0.50000006 0.60000002 -0.30000001
v  0.60000002 0.60000002 -0.14999999
v  -0.49999997 0.60000002 -0.30000001
v  -0.49999997 0.5 -0.14999999
v  -0.49999997 0.5 -0.30000001
v  -0.60000002 0.5 -0.30000001
v  -0.60000002 0.5 -0.14999999
v  0.60000002 -0.5 -0.1
v  -0.60000002 -0.5 -0.1
v  0.60000002 -0.60000002 -0.1
v  0.50000006 0.60000002 -0.1
v  0.50000006 -0.60000002 -0.1
v  0.60000002 0.60000002 -0.1
v  -0.60000002 0.5 -0.1
v  0.60000002 0.5 -0.1
v  0.60000002 0.60000002 -0.082000002
v  0.60000002 -0.60000002 -0.082000002

# 0 UV coordinates

# 6 vertex normals
vn 1 0 0
vn 0 1 2.0683455e-13
vn -1 2.7755576e-17 0
vn 0 -1 -2.0683455e-13
vn -5.5511151e-17 2.0683455e-13 -1
vn 2.7755576e-17 -2.0683455e-13 1

# Mesh '' with 168 faces
usemtl $Material_0
f  1//1 2//1 3//1
f  4//1 1//1 3//1
f  5//2 6//2 2//2
f  5//2 2//2 1//2
f  7//3 6//3 8//3
f  8//3 6//3 5//3
f  7//4 4//4 3//4
f  7//4 8//4 4//4
f  8//5 1//5 4//5
f  8//5 5//5 1//5
f  7//6 3//6 6//6
f  6//6 3//6 2//6
f  9//6 10//6 11//6
f  12//6 9//6 11//6
f  13//3 10//3 14//3
f  9//3 14//3 10//3
f  15//5 13//5 16//5
f  13//5 14//5 16//5
f  15//1 12//1 11//1
f  15//1 16//1 12//1
f  12//2 16//2 14//2
f  12//2 14//2 9//2
f  15//4 11//4 10//4
f  15//4 10//4 13//4
f  17//5 18//5 19//5
f  20//5 17//5 19//5
f  21//1 22//1 18//1
f  21//1 18//1 17//1
f  23//6 24//6 22//6
f  23//6 22//6 21//6
f  24//3 20//3 19//3
f  23//3 20//3 24//3
f  23//2 21//2 20//2
f  21//2 17//2 20//2
f  24//4 19//4 18//4
f  24//4 18//4 22//4
f  25//4 26//4 27//4
f  28//4 25//4 27//4
f  29//1 30//1 26//1
f  29//1 26//1 25//1
f  31//2 32//2 30//2
f  31//2 30//2 29//2
f  32//3 28//3 27//3
f  31//3 28//3 32//3
f  31//5 29//5 28//5
f  29//5 25//5 28//5
f  32//6 27//6 26//6
f  32//6 26//6 30//6
f  33//2 34//2 35//2
f  36//2 33//2 35//2
f  37//1 38//1 34//1
f  37//1 34//1 33//1
f  39//4 40//4 38//4
f  39//4 38//4 37//4
f  40//3 36//3 35//3
f  39//3 36//3 40//3
f  39//6 37//6 36//6
f  37//6 33//6 36//6
f  40//5 35//5 34//5
f  40//5 34//5 38//5
f  41//1 31//1 42//1
f  41//1 40//1 31//1
f  43//2 44//2 42//2
f  43//2 42//2 31//2
f  45//3 46//3 44//3
f  45//3 44//3 43//3
f  46//4 40//4 41//4
f  45//4 40//4 46//4
f  45//5 31//5 40//5
f  45//5 43//5 31//5
f  46//6 41//6 44//6
f  44//6 41//6 42//6
f  47//4 48//4 16//4
f  47//4 16//4 49//4
f  50//3 51//3 48//3
f  50//3 48//3 47//3
f  52//2 53//2 51//2
f  50//2 52//2 51//2
f  49//1 16//1 53//1
f  49//1 53//1 52//1
f  50//6 49//6 52//6
f  50//6 47//6 49//6
f  53//5 16//5 48//5
f  51//5 53//5 48//5
f  8//4 14//4 54//4
f  8//4 54//4 4//4
f  55//3 56//3 14//3
f  55//3 14//3 8//3
f  57//2 58//2 56//2
f  57//2 56//2 55//2
f  58//1 4//1 54//1
f  57//1 4//1 58//1
f  57//6 55//6 4//6
f  55//6 8//6 4//6
f  58//5 54//5 14//5
f  58//5 14//5 56//5
f  59//4 60//4 61//4
f  62//4 59//4 61//4
f  63//3 64//3 60//3
f  63//3 60//3 59//3
f  18//2 64//2 65//2
f  65//2 64//2 63//2
f  18//1 62//1 61//1
f  18//1 65//1 62//1
f  65//6 63//6 62//6
f  63//6 59//6 62//6
f  18//5 61//5 60//5
f  18//5 60//5 64//5
f  66//1 1//1 67//1
f  68//1 66//1 67//1
f  19//2 5//2 1//2
f  66//2 19//2 1//2
f  69//3 70//3 5//3
f  69//3 5//3 19//3
f  70//4 68//4 67//4
f  69//4 68//4 70//4
f  69//5 19//5 68//5
f  68//5 19//5 66//5
f  70//6 67//6 1//6
f  70//6 1//6 5//6
f  71//2 55//2 72//2
f  52//2 55//2 71//2
f  72//3 8//3 7//3
f  72//3 55//3 8//3
f  49//4 73//4 7//4
f  49//4 7//4 8//4
f  73//1 52//1 71//1
f  49//1 52//1 73//1
f  49//5 55//5 52//5
f  49//5 8//5 55//5
f  73//6 71//6 7//6
f  71//6 72//6 7//6
f  74//3 63//3 47//3
f  75//3 74//3 47//3
f  76//2 65//2 63//2
f  76//2 63//2 74//2
f  49//1 65//1 73//1
f  76//1 73//1 65//1
f  75//4 47//4 49//4
f  75//4 49//4 73//4
f  75//6 73//6 74//6
f  76//6 74//6 73//6
f  47//5 65//5 49//5
f  47//5 63//5 65//5
f  77//4 70//4 62//4
f  78//4 77//4 62//4
f  70//3 6//3 5//3
f  77//3 6//3 70//3
f  76//2 65//2 5//2
f  76//2 5//2 6//2
f  78//1 62//1 65//1
f  78//1 65//1 76//1
f  78//6 76//6 77//6
f  77//6 76//6 6//6
f  65//5 62//5 5//5
f  70//5 5//5 62//5
f  79//2 6//2 43//2
f  79//2 76//2 6//2
f  45//3 43//3 7//3
f  43//3 6//3 7//3
f  80//4 45//4 73//4
f  45//4 7//4 73//4
f  80//1 76//1 79//1
f  80//1 73//1 76//1
f  76//5 73//5 6//5
f  73//5 7//5 6//5
f  80//6 79//6 45//6
f  79//6 43//6 45//6

