# File produced by Open Asset Import Library (http://www.assimp.sf.net)
# (assimp v5.0.0)

mtllib pvc_pipe_100x1200.mtl

# 42 vertex positions
v  -0.049825907 -0.00021831162 0.60000002
v  -0.047604546 0.014519447 0.60000002
v  -0.049825907 -0.00021831162 -0.60000002
v  -0.047604546 -0.01495607 -0.60000002
v  -0.047604546 -0.01495607 0.60000002
v  -0.041137841 -0.028384313 -0.60000002
v  -0.041137841 -0.028384313 0.60000002
v  -0.031000394 -0.039309889 -0.60000002
v  -0.031000394 -0.039309889 0.60000002
v  -0.018092956 -0.046762004 -0.60000002
v  -0.018092956 -0.046762004 0.60000002
v  -0.0035624106 -0.050078504 -0.60000002
v  -0.0035624106 -0.050078504 0.60000002
v  0.011300141 -0.048964709 -0.60000002
v  0.011300141 -0.048964709 0.60000002
v  0.025174094 -0.043519586 -0.60000002
v  0.025174094 -0.043519586 0.60000002
v  0.036826689 -0.03422695 -0.60000002
v  0.036826689 -0.03422695 0.60000002
v  0.045222536 -0.021912498 -0.60000002
v  0.045222536 -0.021912498 0.60000002
v  0.049615636 -0.0076704249 -0.60000002
v  0.049615636 -0.0076704249 0.60000002
v  0.049615636 0.0072338013 -0.60000002
v  0.049615636 0.0072338013 0.60000002
v  0.045222536 0.021475876 -0.60000002
v  0.045222536 0.021475876 0.60000002
v  0.036826689 0.033790324 -0.60000002
v  0.036826689 0.033790324 0.60000002
v  0.025174094 0.04308296 -0.60000002
v  0.025174094 0.04308296 0.60000002
v  0.011300141 0.048528083 -0.60000002
v  0.011300141 0.048528083 0.60000002
v  -0.0035624106 0.049641877 -0.60000002
v  -0.0035624106 0.049641877 0.60000002
v  -0.018092956 0.046325378 -0.60000002
v  -0.018092956 0.046325378 0.60000002
v  -0.031000394 0.038873263 -0.60000002
v  -0.031000394 0.038873263 0.60000002
v  -0.041137841 0.02794769 -0.60000002
v  -0.041137841 0.02794769 0.60000002
v  -0.047604546 0.014519447 -0.60000002

# 0 UV coordinates

# 23 vertex normals
vn -0.9888308 0.14904223 -1.8204889e-17
vn -0.9888308 -0.14904223 2.8810251e-17
vn -0.90096879 -0.43388397 2.0111209e-17
vn -0.73305202 -0.68017256 -4.2340212e-17
vn -0.50000006 -0.86602539 4.8247314e-17
vn -0.22252089 -0.9749279 4.5689672e-17
vn 0.074730225 -0.99720377 -1.0640957e-17
vn 0.3653408 -0.93087381 -7.756241e-18
vn 0.62348986 -0.78183144 -1.9093102e-17
vn 0.82623881 -0.56331998 3.0058125e-17
vn 0.95557278 -0.29475534 8.8622132e-17
vn 1 4.305045e-18 1.9093089e-17
vn 0.95557278 0.29475534 8.2205275e-17
vn 0.82623881 0.56331998 9.1500734e-18
vn 0.62348986 0.78183144 9.8283483e-17
vn 0.3653408 0.93087381 -3.9401776e-17
vn 0.074730225 0.99720377 2.1444571e-17
vn -0.22252089 0.9749279 -5.3942552e-17
vn -0.50000006 0.86602539 7.1120446e-17
vn -0.73305202 0.68017256 -1.5176653e-17
vn -0.90096879 0.43388397 4.051257e-17
vn 0 0 1
vn -7.9409339e-23 5.2939559e-23 -1

# Mesh '' with 80 faces
usemtl $Material_0
f  1//1 2//1 3//1
f  4//2 1//2 3//2
f  4//2 5//2 1//2
f  6//3 5//3 4//3
f  7//3 5//3 6//3
f  8//4 7//4 6//4
f  9//4 7//4 8//4
f  10//5 9//5 8//5
f  11//5 9//5 10//5
f  12//6 11//6 10//6
f  13//6 11//6 12//6
f  14//7 13//7 12//7
f  15//7 13//7 14//7
f  16//8 15//8 14//8
f  17//8 15//8 16//8
f  18//9 17//9 16//9
f  19//9 17//9 18//9
f  20//10 19//10 18//10
f  21//10 19//10 20//10
f  22//11 21//11 20//11
f  23//11 21//11 22//11
f  24//12 23//12 22//12
f  24//12 25//12 23//12
f  26//13 25//13 24//13
f  26//13 27//13 25//13
f  28//14 27//14 26//14
f  28//14 29//14 27//14
f  30//15 29//15 28//15
f  30//15 31//15 29//15
f  32//16 31//16 30//16
f  32//16 33//16 31//16
f  32//17 34//17 33//17
f  34//17 35//17 33//17
f  34//18 36//18 35//18
f  36//18 37//18 35//18
f  36//19 38//19 37//19
f  38//19 39//19 37//19
f  38//20 40//20 39//20
f  40//20 41//20 39//20
f  40//21 42//21 41//21
f  41//21 42//21 2//21
f  3//1 2//1 42//1
f  5//22 2//22 1//22
f  41//22 2//22 5//22
f  7//22 41//22 5//22
f  39//22 41//22 7//22
f  9//22 39//22 7//22
f  37//22 39//22 9//22
f  11//22 37//22 9//22
f  35//22 37//22 11//22
f  13//22 35//22 11//22
f  33//22 35//22 13//22
f  15//22 33//22 13//22
f  31//22 33//22 15//22
f  17//22 31//22 15//22
f  29//22 31//22 17//22
f  19//22 29//22 17//22
f  27//22 29//22 19//22
f  21//22 27//22 19//22
f  25//22 27//22 21//22
f  23//22 25//22 21//22
f  4//23 3//23 42//23
f  6//23 4//23 42//23
f  40//23 6//23 42//23
f  40//23 8//23 6//23
f  38//23 8//23 40//23
f  38//23 10//23 8//23
f  36//23 10//23 38//23
f  36//23 12//23 10//23
f  34//23 12//23 36//23
f  34//23 14//23 12//23
f  32//23 14//23 34//23
f  32//23 16//23 14//23
f  32//23 30//23 16//23
f  30//23 18//23 16//23
f  30//23 28//23 18//23
f  28//23 20//23 18//23
f  28//23 26//23 20//23
f  26//23 22//23 20//23
f  26//23 24//23 22//23

