# File produced by Open Asset Import Library (http://www.assimp.sf.net)
# (assimp v5.0.0)

mtllib ramp.mtl

# 26 vertex positions
v  -0.26786947 -0.27500001 -0.086083531
v  -0.24986948 -0.27500001 -0.086083531
v  -0.24986948 -0.27500001 0.063916475
v  -0.26786947 -0.27500001 0.063916475
v  -0.26786947 0.27500001 -0.086083531
v  -0.24986948 0.27500001 -0.086083531
v  -0.26786947 0.27500001 0.063916475
v  -0.24986948 0.27500001 0.063916475
v  -0.26272672 0.27500001 0.086083531
v  -0.26746571 0.27500001 0.068718553
v  -0.26746571 -0.27500001 0.068718553
v  -0.26272672 -0.27500001 0.086083531
v  0.26786947 0.27500001 -0.058718566
v  0.26313052 0.27500001 -0.076083526
v  0.26786947 -0.27500001 -0.058718566
v  0.26313052 -0.27500001 -0.076083526
v  0.26313052 -0.257 -0.086083531
v  -0.24986948 -0.257 -0.086083531
v  0.26313052 -0.27500001 -0.086083531
v  -0.24986948 -0.257 0.063916475
v  0.26313052 -0.257 -0.076083526
v  -0.24986948 0.257 -0.086083531
v  0.26313052 0.27500001 -0.086083531
v  0.26313052 0.257 -0.086083531
v  -0.24986948 0.257 0.063916475
v  0.26313052 0.257 -0.076083526

# 0 UV coordinates

# 11 vertex normals
vn 1.3381056e-16 -1 -1.0356537e-13
vn 3.1048867e-13 1.0349784e-13 -1
vn -3.0972024e-17 1 1.0349415e-13
vn -3.104286e-13 -1.0349784e-13 1
vn -1 -1.2516245e-16 -3.1052938e-13
vn 1 1.8067362e-16 3.1036285e-13
vn -0.96472043 -2.7260847e-14 0.26327637
vn 0.96472073 2.7412753e-14 -0.26327527
vn 0.26327655 -9.9801325e-14 0.96472043
vn -0.26327652 9.991234e-14 -0.96472043
vn 0.26327655 -9.9912347e-14 0.96472043

# Mesh '' with 48 faces
usemtl $Material_0
f  1//1 2//1 3//1
f  4//1 1//1 3//1
f  5//2 6//2 2//2
f  5//2 2//2 1//2
f  7//3 8//3 6//3
f  7//3 6//3 5//3
f  8//4 4//4 3//4
f  7//4 4//4 8//4
f  7//5 5//5 4//5
f  5//5 1//5 4//5
f  8//6 3//6 2//6
f  8//6 2//6 6//6
f  9//7 10//7 11//7
f  12//7 9//7 11//7
f  13//3 14//3 10//3
f  13//3 10//3 9//3
f  15//8 16//8 14//8
f  15//8 14//8 13//8
f  12//1 11//1 16//1
f  15//1 12//1 16//1
f  15//9 13//9 12//9
f  13//9 9//9 12//9
f  11//10 10//10 16//10
f  10//10 14//10 16//10
f  17//2 2//2 18//2
f  19//2 2//2 17//2
f  20//5 18//5 3//5
f  18//5 2//5 3//5
f  21//11 20//11 16//11
f  20//11 3//11 16//11
f  21//6 19//6 17//6
f  21//6 16//6 19//6
f  19//1 16//1 2//1
f  3//1 2//1 16//1
f  21//3 17//3 18//3
f  21//3 18//3 20//3
f  22//2 6//2 23//2
f  24//2 22//2 23//2
f  25//5 8//5 6//5
f  25//5 6//5 22//5
f  26//11 14//11 8//11
f  26//11 8//11 25//11
f  24//6 23//6 14//6
f  26//6 24//6 14//6
f  26//1 22//1 24//1
f  26//1 25//1 22//1
f  23//3 6//3 14//3
f  8//3 14//3 6//3

