# File produced by Open Asset Import Library (http://www.assimp.sf.net)
# (assimp v5.0.0)

mtllib stepover_2.mtl

# 48 vertex positions
v  -0.60007304 0.5499202 0.050001193
v  -0.59992695 -0.5500797 -0.049999207
v  -0.59992683 -0.55007976 0.050000794
v  -0.60007316 0.54992026 -0.049998805
v  -0.54992682 -0.55007315 0.050000712
v  -0.549927 -0.55007309 -0.049999289
v  -0.55007303 0.54992688 0.050001111
v  -0.55007321 0.54992688 -0.049998887
v  -0.54998791 -0.090453722 0.05000088
v  0.090307392 0.55001205 -0.049999949
v  0.090307556 0.55001199 0.050000049
v  -0.54998809 -0.090453684 -0.049999122
v  0.01959688 0.55000257 0.050000168
v  0.019596715 0.55000263 -0.049999833
v  -0.54999727 -0.019743033 0.050000906
v  -0.54999745 -0.019742996 -0.049999095
v  0.54998809 0.090453677 0.049999122
v  -0.090307526 -0.55001199 -0.050000049
v  -0.090307362 -0.55001205 0.049999949
v  0.54998791 0.090453707 -0.05000088
v  -0.019596731 -0.55000263 0.049999833
v  -0.019596897 -0.55000257 -0.050000168
v  0.54999745 0.019743012 0.049999095
v  0.54999727 0.019743048 -0.050000906
v  0.51457137 0.55006844 -0.050000653
v  0.51457155 0.55006838 0.049999349
v  0.549927 0.55007309 0.049999289
v  0.54992682 0.55007315 -0.050000712
v  -0.54993165 -0.51471776 -0.049999274
v  -0.54993153 -0.51471776 0.050000723
v  -0.51457143 -0.55006844 0.050000653
v  -0.51457161 -0.55006838 -0.049999349
v  0.54993153 0.51471776 -0.050000723
v  0.54993165 0.51471776 0.049999274
v  -0.59992033 -0.60007972 -0.049999226
v  0.60007304 -0.5499202 -0.050001193
v  0.60007966 -0.59992021 -0.050001211
v  0.60007983 -0.59992027 0.049998786
v  0.60007316 -0.54992026 0.049998805
v  -0.59992015 -0.60007977 0.050000776
v  0.59992683 0.55007976 -0.050000794
v  0.59992015 0.60007977 -0.050000776
v  -0.60007983 0.59992027 -0.049998786
v  0.59992695 0.5500797 0.049999207
v  0.59992033 0.60007972 0.049999226
v  -0.60007966 0.59992021 0.050001211
v  0.55007321 -0.54992688 0.049998887
v  0.55007303 -0.54992688 -0.050001111

# 0 UV coordinates

# 74 vertex normals
vn -1 -0.00013291836 1.1920137e-06
vn 0.00013232228 -1 -5.9628303e-07
vn 0.00013232244 -1 -5.9620419e-07
vn 1 0.00013291836 -1.7881393e-06
vn 1 0.00013291836 -1.7880601e-06
vn -0.00013351438 1 5.9620561e-07
vn -0.00013232244 1 2.3661095e-10
vn -1.6391776e-06 3.6553791e-07 -1
vn 1.6391757e-06 -3.6215127e-07 1
vn 1.6391753e-06 -3.6215127e-07 1
vn 0.70720077 -0.70701277 -1.5806049e-06
vn 0.70720077 -0.70701277 -1.5279563e-06
vn -0.00013318405 1 5.9626723e-07
vn -0.00013318405 1 5.9626478e-07
vn -0.70720077 0.70701277 1.5279563e-06
vn -0.70720077 0.70701277 1.5937775e-06
vn -1 -0.00013234108 1.78809e-06
vn 1.6636329e-06 -3.6856471e-07 1
vn 1.6859257e-06 -3.8839059e-07 1
vn -1.6636329e-06 3.6856471e-07 -1
vn -1.6332359e-06 3.4153132e-07 -1
vn -0.70720077 0.70701277 1.5806049e-06
vn -0.70720077 0.70701277 1.4752798e-06
vn 0.00013318413 -1 -5.9626723e-07
vn 0.00013318413 -1 -5.9626478e-07
vn 0.70720077 -0.70701277 -1.5147872e-06
vn 0.70720077 -0.70701277 -1.5937775e-06
vn 1 0.00013234113 -1.7880999e-06
vn 1 0.00013234114 -1.7880925e-06
vn 1.663633e-06 -3.6856483e-07 1
vn 1.6332369e-06 -3.4153231e-07 1
vn -1.6660945e-06 3.6856454e-07 -1
vn -1.6859271e-06 3.9085302e-07 -1
vn -0.00013318362 1 5.9628456e-07
vn -0.70720077 0.70701277 8.4304907e-07
vn -0.70720083 0.70701271 1.685986e-06
vn -1 -0.00013318386 1.7880599e-06
vn -1 -0.00013149821 1.1920929e-06
vn 0.00013318386 -1 -5.9628456e-07
vn 0.70720083 -0.70701277 -8.4304907e-07
vn 0.70720077 -0.70701277 -1.6859859e-06
vn 1 0.00013149821 -1.7880609e-06
vn 1 0.00013318386 -1.1920929e-06
vn 1.6859248e-06 -4.2124691e-07 1
vn 1.701056e-06 -4.0611158e-07 1
vn 1.6466159e-06 -3.5518454e-07 1
vn 1.6859136e-06 -3.1587638e-07 1
vn -1.6859108e-06 3.1587638e-07 -1
vn -1.6466145e-06 3.551832e-07 -1
vn -1.7010576e-06 4.0611297e-07 -1
vn -1.6859276e-06 4.2124691e-07 -1
vn -1.6546993e-06 3.7230998e-07 -1
vn 1 0.00013351438 -1.7880598e-06
vn 1 0.00013232228 -1.192014e-06
vn 1.6578036e-06 -3.723076e-07 1
vn -1 -0.00013232228 1.7880604e-06
vn -1 -0.00013351438 1.1920133e-06
vn -0.00013291836 1 5.9620487e-07
vn -0.00013291836 1 5.9620493e-07
vn 0.00013291836 -1 -5.9628411e-07
vn -1.6578036e-06 3.723076e-07 -1
vn 1.6546993e-06 -3.7230998e-07 1
vn -0.00013291836 1 5.9628411e-07
vn 0.00013291836 -1 -5.9620493e-07
vn 0.00013291836 -1 -5.9620487e-07
vn -1 -0.00013291836 1.7881393e-06
vn -1 -0.00013291836 1.7880601e-06
vn 0.00013351438 -1 -2.387423e-10
vn 1 0.00013291836 -1.1920137e-06
vn -0.00013232244 1 5.9628303e-07
vn -0.00013232228 1 5.9620419e-07
vn -1.6391753e-06 3.6215127e-07 -1
vn -1.6391757e-06 3.6215127e-07 -1
vn 1.6391776e-06 -3.6553791e-07 1

# Mesh '' with 92 faces
usemtl $Material_0
f  1//1 2//1 3//1
f  4//1 2//1 1//1
f  5//2 3//2 6//2
f  6//3 3//3 2//3
f  7//4 5//4 8//4
f  8//5 5//5 6//5
f  7//6 4//6 1//6
f  7//7 8//7 4//7
f  8//8 6//8 4//8
f  6//8 2//8 4//8
f  7//9 1//9 3//9
f  7//10 3//10 5//10
f  9//11 10//11 11//11
f  12//12 10//12 9//12
f  13//13 11//13 14//13
f  14//14 11//14 10//14
f  15//15 13//15 16//15
f  16//16 13//16 14//16
f  15//17 12//17 9//17
f  15//17 16//17 12//17
f  15//18 9//18 13//18
f  13//19 9//19 11//19
f  16//20 14//20 12//20
f  14//21 10//21 12//21
f  17//22 18//22 19//22
f  20//23 18//23 17//23
f  21//24 19//24 22//24
f  22//25 19//25 18//25
f  23//26 21//26 24//26
f  24//27 21//27 22//27
f  23//28 20//28 17//28
f  23//29 24//29 20//29
f  23//30 17//30 21//30
f  21//31 17//31 19//31
f  24//32 18//32 20//32
f  24//33 22//33 18//33
f  25//34 26//34 27//34
f  25//34 27//34 28//34
f  26//35 29//35 30//35
f  25//36 29//36 26//36
f  5//37 30//37 6//37
f  6//38 30//38 29//38
f  31//39 5//39 32//39
f  32//39 5//39 6//39
f  33//40 34//40 31//40
f  33//41 31//41 32//41
f  34//42 28//42 27//42
f  33//43 28//43 34//43
f  34//44 27//44 26//44
f  34//45 26//45 31//45
f  31//46 26//46 30//46
f  31//47 30//47 5//47
f  33//48 25//48 28//48
f  33//49 32//49 25//49
f  32//50 29//50 25//50
f  32//51 6//51 29//51
f  35//52 36//52 37//52
f  35//52 2//52 36//52
f  38//53 37//53 39//53
f  39//54 37//54 36//54
f  40//55 38//55 3//55
f  38//55 39//55 3//55
f  40//56 2//56 35//56
f  40//57 3//57 2//57
f  36//58 2//58 3//58
f  39//59 36//59 3//59
f  40//60 35//60 38//60
f  38//60 35//60 37//60
f  41//61 4//61 42//61
f  43//61 42//61 4//61
f  44//54 41//54 45//54
f  45//53 41//53 42//53
f  46//62 1//62 44//62
f  46//62 44//62 45//62
f  43//57 4//57 1//57
f  46//56 43//56 1//56
f  46//63 42//63 43//63
f  46//63 45//63 42//63
f  44//64 1//64 4//64
f  44//65 4//65 41//65
f  47//66 27//66 48//66
f  48//67 27//67 28//67
f  47//3 36//3 39//3
f  47//68 48//68 36//68
f  44//69 39//69 41//69
f  41//69 39//69 36//69
f  44//70 28//70 27//70
f  44//71 41//71 28//71
f  41//72 36//72 28//72
f  48//73 28//73 36//73
f  47//74 44//74 27//74
f  47//74 39//74 44//74

